<svg xmlns="http://www.w3.org/2000/svg" width="62" height="68" viewBox="0 0 62 68">
  <g id="Gruppe_13706" data-name="Gruppe 13706" transform="translate(-429 -16)">
    <g id="BG" transform="translate(429 16)" fill="#009036" stroke="#009036" stroke-miterlimit="10" stroke-width="1">
      <rect width="62" height="68" rx="10" stroke="none"/>
      <rect x="0.5" y="0.5" width="61" height="67" rx="9.5" fill="none"/>
    </g>
    <g id="Leiner_Logo" transform="translate(439.951 51)">
      <path id="Pfad_6819" data-name="Pfad 6819" d="M12.412,5.006c.356-.182.935-.422.935-.422a5.539,5.539,0,0,0,.976-2.615A2.233,2.233,0,0,0,11.857,0C9.1.008,7.339,2.582,6.578,5.271A30.874,30.874,0,0,1,5.511,8.8h0C5.37,9.135,5.2,9.524,5,9.971A3.655,3.655,0,0,0,3.153,9.7a3.837,3.837,0,0,0-3.1,1.63h0a.5.5,0,0,0-.05.215c.033.918.91,1.225,1.829,1.225a5.719,5.719,0,0,0,3.078-.877,32.363,32.363,0,0,1,2.681,1.928l.05.041h0a28.074,28.074,0,0,0,3.525,2.532s1.5-1.622,1.489-1.622c-.554-.331-1.034-.629-1.465-.91h0c-.7-.455-1.3-.885-1.969-1.39-.538-.405-1.076-.761-1.647-1.142h0l-.976-.662s.521-.811,1.1-1.87h0A13.338,13.338,0,0,0,9.019,5.635C9.466,3.6,10.566.72,12.13.72s.827,2.507-.927,4.973c0,0,.72-.447,1.208-.687M1.961,12.122c-.761,0-.985-.439-.985-.6a.339.339,0,0,1,.058-.2c.108-.157.414-.348,1.241-.348a2.725,2.725,0,0,1,1.6.348h0l.041.033a3.855,3.855,0,0,1-1.961.761" transform="translate(0 0)" fill="#fff"/>
      <path id="Pfad_6820" data-name="Pfad 6820" d="M136.829,84.5a2.758,2.758,0,0,1-1.465.439.864.864,0,0,1-.861-.439h0a1.363,1.363,0,0,1-.083-.827s2.88-.43,3.74-1.713h0a1.382,1.382,0,0,0,.207-.488c.331-1.556-.91-1.671-1.465-1.7a4.767,4.767,0,0,0-3.2,1.614q-.223.273-.447.571c-.629.861-1.192,1.8-1.324,1.944a3.459,3.459,0,0,1-.563.587h0a1.506,1.506,0,0,1-.9.323c-.207,0-.265-.132-.24-.323h0a3.834,3.834,0,0,1,.53-1.158,13.667,13.667,0,0,0,.712-1.374h0a3.31,3.31,0,0,0,.331-1.134,1.051,1.051,0,0,0-1.043-1.051,6.106,6.106,0,0,0-3.417,2.036l.645-1.754-2.292.273a17.183,17.183,0,0,1-.571,1.63h0a7.547,7.547,0,0,1-.381.8,4.665,4.665,0,0,1-1.572,1.729h0a1.208,1.208,0,0,1-.6.165.325.325,0,0,1-.331-.165h0c-.132-.281.124-.91.513-1.762l.348-.77h0c.43-.952.827-1.862.827-1.862l-2.259.207a12.023,12.023,0,0,1-.811,1.663h0a6.909,6.909,0,0,1-1.68,2.019c-.3.215-.546.389-.753.521h0c-.894.563-1.142.463-1.4.463a.911.911,0,0,1-.869-.463h0a1.572,1.572,0,0,1-.157-.827s2.772-.215,3.723-1.713h0a1.986,1.986,0,0,0,.306-.952c.05-.91-.927-1.233-1.431-1.233a5.837,5.837,0,0,0-4.013,2.184h0a3.131,3.131,0,0,0-.794,1.994,2.987,2.987,0,0,0,.058.538,1.989,1.989,0,0,0,2.143,1.58A6.36,6.36,0,0,0,119.4,84.5h0a12,12,0,0,0,.993-.869,3.152,3.152,0,0,0-.331.869h0c-.124.612-.017,1.349,1.125,1.531.77.124,2.135-.943,2.822-1.531h0c.257-.223.414-.372.414-.372l-.182.372-.67,1.374,2.226-.24s.215-.5.521-1.134h0a11.105,11.105,0,0,1,1.407-2.35l.182-.182h0c.621-.621.952-.918,1.514-.852.223.025.116.381-.116.852h0a11.79,11.79,0,0,0-1.183,2.524h0c-.033.67.008,1.564,1.274,1.514a5.087,5.087,0,0,0,2.631-1.514h0l.2-.207a1.827,1.827,0,0,0,.041.207A1.867,1.867,0,0,0,134.239,86a6.47,6.47,0,0,0,3.525-1.514h0a6.652,6.652,0,0,0,.827-.8l-.3.8-.5,1.374,2.151-.265.53-1.109h0c.281-.571.579-1.183.687-1.349a10.28,10.28,0,0,1,.77-1.183h0a.811.811,0,0,1,.5-.339.294.294,0,0,1,.257.339h0a2.155,2.155,0,0,1-.207.678l1.994-.265s.041-.165.083-.414a4.559,4.559,0,0,0,.066-1.2.831.831,0,0,0-.869-.811,3.993,3.993,0,0,0-2.416,1.771l.778-1.771L139.8,80.2a7.034,7.034,0,0,1-.678,1.754h0a7.125,7.125,0,0,1-1.051,1.473,5.933,5.933,0,0,1-1.241,1.051m-1.82-2.532h0c.339-.679.836-1.423,1.34-1.423s.53.405.53.621a1.282,1.282,0,0,1-.265.8h0a3.749,3.749,0,0,1-2.069,1.059,10.053,10.053,0,0,1,.463-1.059Zm-18.394,0h0c.339-.679.836-1.423,1.34-1.423s.53.405.53.621a1.357,1.357,0,0,1-.248.8h-.008a2.269,2.269,0,0,1-.952.745,3.8,3.8,0,0,1-1.125.306,10.046,10.046,0,0,1,.463-1.059" transform="translate(-104.369 -73.17)" fill="#fff"/>
      <path id="Pfad_6821" data-name="Pfad 6821" d="M216.68,53.767c.165.405-.215.935-.852,1.2s-1.291.149-1.456-.248.215-.935.852-1.2,1.283-.149,1.448.248" transform="translate(-196.598 -48.96)" fill="#fff"/>
    </g>
  </g>
</svg>
