<svg xmlns="http://www.w3.org/2000/svg" xmlns:xlink="http://www.w3.org/1999/xlink" width="62" height="68" viewBox="0 0 62 68">
  <defs>
    <clipPath id="clip-path">
      <rect id="Rechteck_6498" data-name="Rechteck 6498" width="39.451" height="14.535" fill="none"/>
    </clipPath>
  </defs>
  <g id="Gruppe_13672" data-name="Gruppe 13672" transform="translate(-359 -16)">
    <g id="Bg" transform="translate(359 16)" fill="#ee1c25" stroke="#ee1c25" stroke-miterlimit="10" stroke-width="1">
      <rect width="62" height="68" rx="10" stroke="none"/>
      <rect x="0.5" y="0.5" width="61" height="67" rx="9.5" fill="none"/>
    </g>
    <g id="Logo" transform="translate(389.811 59.148)">
      <g id="Logo-2" data-name="Logo" transform="translate(-19.725 -7.268)" clip-path="url(#clip-path)">
        <path id="Pfad_7469" data-name="Pfad 7469" d="M26.675,1.7l-1.05,4.778.95-.914H32.5c.49.035.985-.23,1.5-.195a3.809,3.809,0,0,1,1.7.554l.425-.36H40.98s-1.77,7.6-2,8.642l-1.8,1.8H32.928l.065-.59a3.387,3.387,0,0,1-3.014.49,2.3,2.3,0,0,1-.755-.525L28.6,16H23.336a3.693,3.693,0,0,0-.26-.785c-.26.26-.525.554-.785.785H8.442l-.26-.714-.79.72H1.7L4.478,3.729l2-2h4.943L10.342,6.578l1.05-1.05h3.3a4.212,4.212,0,0,1,.914-1.569l1.6-1.6a2.573,2.573,0,0,1,2.159-.59,2.46,2.46,0,0,1,1.374.655c.035.035.165.13.165.13l.855-.849Z" transform="translate(-1.6 -1.6)"/>
        <path id="Pfad_7470" data-name="Pfad 7470" d="M25.075.1l.065.035L24.126,4.648l.785-.755h6.058c.4,0,.849-.195,1.345-.195h.065a3.433,3.433,0,0,1,1.734.59l-.035.065-.035-.1.425-.4h4.979l-.035.1s-1.77,7.6-2,8.642v.035L35.546,14.47H31.163l.1-.69h.1l.035.065a4.31,4.31,0,0,1-2.094.69,2.631,2.631,0,0,1-.979-.195,2.452,2.452,0,0,1-.755-.525l.065-.065.065.065-.625.619h-5.4V14.4a7.1,7.1,0,0,0-.23-.785l.065-.035.065.065a8.9,8.9,0,0,1-.785.785l-.035.035H6.807l-.23-.655-.72.7L0,14.47,2.814,2.094,4.843.065H9.916L8.872,4.748l.885-.885h3.374v.065l-.065-.035a4.655,4.655,0,0,1,.914-1.6l1.6-1.6A2.784,2.784,0,0,1,17.319.035c.165,0,.324.035.46.035l-.035.065v-.1a2.478,2.478,0,0,1,1.41.69c.035.035.065.065.1.065s.065.1.065.1l-.065.065L19.183.885,20.1,0h5.073L25.14.1h-.065V.195H20.168l-.885.885-.065-.065a.9.9,0,0,0-.165-.13L19.118.82l-.065.065A2.236,2.236,0,0,0,17.743.26a2.165,2.165,0,0,0-.46-.035,2.621,2.621,0,0,0-1.634.619L15.584.779l.065.065L14.074,2.424l-.065-.065.065.065a4.145,4.145,0,0,0-.885,1.569l-.035.065H9.821l-1.05,1.05-.13-.065L9.692.295H4.914L2.943,2.159.195,14.3H5.763l.849-.785.295.785H20.722v.1l-.065-.065c.26-.23.525-.525.785-.785l.1-.1.065.13c.1.26.195.554.26.785l-.13.035v-.1H27.01v.1l-.065-.065.649-.655.065.065a2.171,2.171,0,0,0,.72.49,2.194,2.194,0,0,0,.914.195,4.13,4.13,0,0,0,2.029-.655l.13.1-.1.525h-.088v-.1h4.253v.1l-.065-.065,1.8-1.8.065.065-.065-.035c.13-.525.619-2.684,1.079-4.713s.914-3.929.914-3.929l.065.035v.1H34.5l-.425.4-.065-.035a3.576,3.576,0,0,0-1.669-.554h-.065c-.425,0-.885.195-1.345.195H24.975l-.914.844-.13-.065L24.981.065l.1.035h0Z"/>
        <path id="Pfad_7471" data-name="Pfad 7471" d="M308.978,16.972l2.424-3.109h4.389l-3.274,3.4,2.029,4.253h-4.583l-1.05-3.569-.82,3.569H304.1L306.69,10h3.864c-.035,0-1.5,6.907-1.569,6.972" transform="translate(-286.162 -9.41)" fill="#fff"/>
        <path id="Pfad_7472" data-name="Pfad 7472" d="M307,15.373l-.065-.035,2.454-3.144h4.454l.065.13-3.274,3.339,2.065,4.324h-4.778l-.979-3.339-.755,3.339H302L304.654,8.3h4.029l-.035.1s-.36,1.734-.755,3.468c-.195.885-.4,1.734-.525,2.389a6.79,6.79,0,0,1-.195.785,2.087,2.087,0,0,1-.065.23v.165l-.1-.065-.065-.035.065.035-.065-.035.065.035-.065-.035.065.035-.065-.035a2.925,2.925,0,0,0,.065-.36c.165-.72.525-2.359.849-3.864.165-.755.324-1.439.425-1.929s.195-.849.195-.849l.065.035v.1h-3.8l-2.554,11.355h3.828l.82-3.5H307l1.05,3.533h4.389l-2-4.188,3.209-3.309h-4.159L307.1,15.437l-.165-.1Z" transform="translate(-284.186 -7.81)"/>
        <path id="Pfad_7473" data-name="Pfad 7473" d="M266.086,11.852a1.5,1.5,0,0,1-.13,1.439,1.949,1.949,0,0,1-1.864.755,1.764,1.764,0,0,1-1.5-1.209,1.556,1.556,0,0,1,.4-1.41,2.073,2.073,0,0,1,2.259-.4,1.858,1.858,0,0,1,.849.82" transform="translate(-247.069 -10.218)" fill="#fff"/>
        <path id="Pfad_7474" data-name="Pfad 7474" d="M264.424,10.479l.065-.035a1.328,1.328,0,0,1,.13.619,1.534,1.534,0,0,1-.295.914,2.017,2.017,0,0,1-1.634.832.908.908,0,0,1-.295-.035,1.866,1.866,0,0,1-1.569-1.274,1.729,1.729,0,0,1-.035-.4,1.557,1.557,0,0,1,.46-1.115,2.122,2.122,0,0,1,1.5-.59,2.159,2.159,0,0,1,.885.195,1.874,1.874,0,0,1,.885.849l-.1.035.065-.035-.065.035-.065.035a1.6,1.6,0,0,0-.814-.785l.035-.065-.035.065a2.253,2.253,0,0,0-.785-.165,1.929,1.929,0,0,0-1.374.554,1.412,1.412,0,0,0-.4,1.015,1.115,1.115,0,0,0,.035.324h-.1l.065-.035a1.708,1.708,0,0,0,1.439,1.144c.1,0,.195.035.26.035a1.911,1.911,0,0,0,1.5-.72,1.433,1.433,0,0,0,.265-.814.962.962,0,0,0-.13-.525Z" transform="translate(-245.407 -8.846)"/>
        <path id="Pfad_7475" data-name="Pfad 7475" d="M52.577,10.5l-1.569,7.043,2.454-3.209h4.454l-3.439,3.6,1.864,4.058H51.857l-1.079-3.5-.82,3.5H46.1c0,.035,2.584-11.455,2.584-11.455h3.893Z" transform="translate(-43.381 -9.881)" fill="#fff"/>
        <path id="Pfad_7476" data-name="Pfad 7476" d="M50.883,9.465l.1.035-1.5,6.648L51.7,13.234h4.483l.065.13-3.4,3.569,1.935,4.094H50.1l-.979-3.274-.755,3.274H44.436v-.065h.1v.065a.112.112,0,0,1-.065.035l-.065-.035-.1-.065.035-.065.065-.035c-.035,0-.035.035-.065.035l.065.065-.1-.035v-.035l.1.065-.1-.035.1.035-.1-.035.1.035-.1-.035c.035-.13.69-3.014,1.345-5.828s1.274-5.627,1.274-5.627V9.4h4.058v.1l-.1-.035v.1H46.99v-.1l.1.035s-.655,2.879-1.31,5.728c-.324,1.439-.655,2.879-.885,3.964-.13.525-.23.979-.295,1.31a1.734,1.734,0,0,1-.1.36.118.118,0,0,1-.035.1v.065a.112.112,0,0,1-.065.035l-.065-.035-.035-.065.035-.065.065-.035a.112.112,0,0,0-.065.035v.035l.065.035h-.094v-.035l.065.035h-.065v-.1H48.2l.82-3.439h.165l1.05,3.439h4.288l-1.87-4,3.339-3.5H51.8l-2.424,3.174-.165-.065,1.575-7.037.1.035h0Z" transform="translate(-41.687 -8.846)"/>
        <path id="Pfad_7477" data-name="Pfad 7477" d="M478.823,75.037a.784.784,0,0,1,.23.4l.295-1.18h3.893l-1.77,7.621h-3.864l.23-1.144A7.727,7.727,0,0,1,475.579,82a2.237,2.237,0,0,1-2.194-.49,3.662,3.662,0,0,1-.72-3.929,4.96,4.96,0,0,1,4.029-3.439,2.339,2.339,0,0,1,2.129.885" transform="translate(-444.546 -69.764)" fill="#fff"/>
        <path id="Pfad_7478" data-name="Pfad 7478" d="M477.683,73.779l.065-.065a2.728,2.728,0,0,1,.26.4l-.065.035-.065-.035.324-1.245h4.058L480.4,80.687h-4.023l.26-1.245.065.035.065.065a7.188,7.188,0,0,1-2.289,1.274,2.489,2.489,0,0,1-.69.1,2.208,2.208,0,0,1-1.569-.59l.065-.065-.065.065a3.168,3.168,0,0,1-1.015-2.454,5.1,5.1,0,0,1,.26-1.569,5.016,5.016,0,0,1,4.094-3.5h.13a2.509,2.509,0,0,1,2.065.914l-.065.065-.065.065a2.253,2.253,0,0,0-1.935-.855h-.13a4.938,4.938,0,0,0-3.964,3.4,4.872,4.872,0,0,0-.23,1.54,2.94,2.94,0,0,0,.95,2.324,2.171,2.171,0,0,0,1.475.554,2.266,2.266,0,0,0,.655-.1l.035.065-.035-.065a7.766,7.766,0,0,0,2.224-1.245l.13.1-.23,1.05h3.7L482,73.154h-3.7l-.295,1.115h-.165a1.351,1.351,0,0,0-.23-.36Z" transform="translate(-443.405 -68.506)"/>
        <path id="Pfad_7479" data-name="Pfad 7479" d="M228.129,83.157H224.2l1.734-7.657h3.9Z" transform="translate(-210.975 -71.046)" fill="#fff"/>
        <path id="Pfad_7480" data-name="Pfad 7480" d="M226.529,82.121v.071H222.5l1.77-7.792h4.058l-1.734,7.792h-.065v-.071l-.1-.029,1.7-7.533H224.4l-1.7,7.468h3.828v.094l-.1-.029Z" transform="translate(-209.375 -70.011)"/>
        <path id="Pfad_7481" data-name="Pfad 7481" d="M541.34,113.373a2.306,2.306,0,0,1-.165,2.065c-.295.59-.59.69-.914.72a.721.721,0,0,1-.69-.46,2.541,2.541,0,0,1,.555-2.324.86.86,0,0,1,.914-.295c.1.1.23.165.295.295" transform="translate(-507.653 -106.366)"/>
        <path id="Pfad_7482" data-name="Pfad 7482" d="M539.67,112.589l.065-.035a1.745,1.745,0,0,1,.195.785,2.914,2.914,0,0,1-.36,1.345,1.864,1.864,0,0,1-.49.59.776.776,0,0,1-.525.165h-.035a.833.833,0,0,1-.72-.49,2.27,2.27,0,0,1-.1-.655,2.566,2.566,0,0,1,.69-1.734,1.1,1.1,0,0,1,.72-.36.619.619,0,0,1,.26.065.72.72,0,0,1,.324.295l-.035.035-.065.035a.584.584,0,0,0-.26-.23l.035-.065-.035.065a.484.484,0,0,0-.23-.035.969.969,0,0,0-.619.324l-.065-.065.065.065a2.483,2.483,0,0,0-.619,1.634,1.851,1.851,0,0,0,.1.59l-.065.035.065-.035a.649.649,0,0,0,.59.4h.035a.661.661,0,0,0,.425-.13,1.755,1.755,0,0,0,.425-.554l.065.035-.065-.035a2.889,2.889,0,0,0,.36-1.274,1.78,1.78,0,0,0-.165-.72l.035-.035-.065.035Z" transform="translate(-505.983 -105.582)"/>
      </g>
    </g>
  </g>
</svg>
