<svg xmlns="http://www.w3.org/2000/svg" xmlns:xlink="http://www.w3.org/1999/xlink" width="62" height="68" viewBox="0 0 62 68">
  <defs>
    <clipPath id="clip-path">
      <rect id="Rechteck_7676" data-name="Rechteck 7676" width="20.299" height="35.147" fill="none"/>
    </clipPath>
  </defs>
  <g id="Gruppe_13707" data-name="Gruppe 13707" transform="translate(-499 -16)">
    <g id="BG" transform="translate(499 16)" fill="#012f51" stroke="#012f51" stroke-miterlimit="10" stroke-width="1">
      <rect width="62" height="68" rx="10" stroke="none"/>
      <rect x="0.5" y="0.5" width="61" height="67" rx="9.5" fill="none"/>
    </g>
    <g id="logo_freigestellt" transform="translate(520.149 48.842)">
      <g id="Gruppe_13531" data-name="Gruppe 13531" transform="translate(-10.149 -17.574)" clip-path="url(#clip-path)">
        <path id="Pfad_9014" data-name="Pfad 9014" d="M32.3,51.91a5.3,5.3,0,0,0,.318,1.86,4.382,4.382,0,0,0,.953,1.517,4.641,4.641,0,0,0,1.49,1.052,4.267,4.267,0,0,0,1.734.367,4.319,4.319,0,0,0,3.273-1.371,4.827,4.827,0,0,0,1.319-3.451,4.487,4.487,0,0,0-.318-1.664A4.964,4.964,0,0,0,38.607,47.6a4.535,4.535,0,0,0-3.517-.024,4.3,4.3,0,0,0-1.417.979,4.847,4.847,0,0,0-1,1.542A4.707,4.707,0,0,0,32.3,51.91m-1.905,0a6.4,6.4,0,0,1,.513-2.521,6.585,6.585,0,0,1,1.466-2.154,6.375,6.375,0,0,1,2.027-1.371,6.242,6.242,0,0,1,2.418-.465,6.423,6.423,0,0,1,6.449,6.486,7.135,7.135,0,0,1-.415,2.472,6.047,6.047,0,0,1-1.246,2.031,6.645,6.645,0,0,1-2.2,1.591,6.364,6.364,0,0,1-2.614.538,6.242,6.242,0,0,1-2.614-.538,6.425,6.425,0,0,1-2.15-1.615,6.146,6.146,0,0,1-1.221-2.031,7.086,7.086,0,0,1-.415-2.448" transform="translate(-22.974 -34.287)" fill="#fff"/>
        <path id="Pfad_9015" data-name="Pfad 9015" d="M6.546,13.629H0V1H6.546V2.664H1.832V6.458H6.546V8.1H1.832v3.769h6.5Z" transform="translate(0 -0.755)" fill="#fff"/>
        <path id="Pfad_9016" data-name="Pfad 9016" d="M1.905,52.864,6.668,46.5h2.2L3.982,52.766l4.763,6.364-1.93.514Zm-.073,6.266H0V46.5H1.832Z" transform="translate(0 -35.119)" fill="#fff"/>
        <path id="Pfad_9017" data-name="Pfad 9017" d="M5.96,104.629H0V92H1.832v10.892H5.96Z" transform="translate(0 -69.482)" fill="#fff"/>
        <path id="Pfad_9018" data-name="Pfad 9018" d="M34.146,104.629H27.6V92h6.546v1.689H29.432v3.769h4.714V99.1H29.432v3.794h4.714Z" transform="translate(-20.858 -69.482)" fill="#fff"/>
        <path id="Pfad_9019" data-name="Pfad 9019" d="M27.4,9.217h1.637a2.4,2.4,0,0,0,.586,1.566,1.806,1.806,0,0,0,1.392.587,2,2,0,0,0,1.514-.587,2.156,2.156,0,0,0,.562-1.566A1.936,1.936,0,0,0,32.676,7.9a4.069,4.069,0,0,0-1.734-.881L30.7,6.965a3.94,3.94,0,0,1-2.3-1.4,3.159,3.159,0,0,1-.489-.906,3.237,3.237,0,0,1-.171-1.028A3.627,3.627,0,0,1,28.719.993a3.343,3.343,0,0,1,2.516-1A3.123,3.123,0,0,1,33.58.9a3.719,3.719,0,0,1,.977,2.448h-1.71a1.813,1.813,0,0,0-.513-1.224,1.707,1.707,0,0,0-2.394.049,1.887,1.887,0,0,0-.464,1.322,1.643,1.643,0,0,0,.1.538,1.469,1.469,0,0,0,.269.465,3.162,3.162,0,0,0,1.588.759l.855.245a3.982,3.982,0,0,1,1.881,1.371,3.554,3.554,0,0,1,.684,2.178,4.167,4.167,0,0,1-1.05,2.962,3.587,3.587,0,0,1-2.76,1.126,3.441,3.441,0,0,1-2.614-1.077A4.056,4.056,0,0,1,27.4,9.242" transform="translate(-20.707 0.01)" fill="#fff"/>
      </g>
    </g>
  </g>
</svg>
