<?xml version="1.0" encoding="UTF-8"?>
<svg width="700pt" height="700pt" version="1.1" viewBox="0 0 700 700" xmlns="http://www.w3.org/2000/svg">
 <path d="m326.67 70v23.332h-175c-19.332 0-35 15.672-35 35v326.67c0 19.328 15.668 35 35 35h326.66c19.332 0 35-15.672 35-35v-175h23.336v175c0 32.215-26.117 58.332-58.336 58.332h-326.66c-32.219 0-58.336-26.117-58.336-58.332v-326.67c0-32.215 26.117-58.332 58.336-58.332zm216.83 58.332-65.168-65.168-268.33 268.34v65.168h65.168zm-356.83 291.67v-98.164l291.66-291.67 98.168 98.164-291.67 291.67z"/>
</svg>
